<svg xmlns="http://www.w3.org/2000/svg" xmlns:xlink="http://www.w3.org/1999/xlink" width="400" height="400" viewBox="0 0 400 400">
<rect data-name="background" width="100%" height="100%" fill="#222222"/><g data-name="watermark" class="watermark-logodesign" stroke="#ffffff" transform="translate(10, 320) scale(1.5) rotate(-45)" style="opacity:0.040000010281801224;"><path fill="#000000" d="M22.92,19.2q3.04,1.68,4.8,4.7t1.76,6.78t-1.76,6.78t-4.8,4.7t-6.68,1.68t-6.7-1.68t-4.84-4.7t-1.78-6.78t1.78-6.78t4.84-4.7t6.7-1.68t6.68,1.68z M11.14,21.74q-2.26,1.3-3.54,3.62t-1.28,5.32t1.28,5.32t3.54,3.6t5.1,1.28t5.08-1.28t3.52-3.6t1.28-5.32t-1.28-5.32t-3.54-3.62t-5.06-1.3q-2.84,0-5.1,1.3z M21.4,24.76l-1.8,2.32q-0.72-0.56-1.4-0.78t-1.48-0.22q-1.44,0-2.3,1.1t-0.86,3.46q0,2.32,0.82,3.44t2.26,1.12q0.96,0,1.74-0.3t1.54-0.9l1.64,2.44q-2.24,2.04-5.2,2.04q-3.2,0-5.08-2.04t-1.88-5.8q0-2.4,0.9-4.16t2.48-2.7t3.54-0.94q2.92,0,5.08,1.92z M41.2,20.32l0,22.96l10.96,0l-0.64,4.72l-16.2,0l0-27.68l5.88,0z M71.92,29.14q2.68,2.98,2.68,8.26q0,3.36-1.22,5.9t-3.52,3.94t-5.42,1.4q-4.76,0-7.46-2.98t-2.7-8.26q0-3.36,1.22-5.9t3.52-3.94t5.46-1.4q4.76,0,7.44,2.98z M61.26,32.1q-1.06,1.7-1.06,5.3t1.06,5.3t3.18,1.7t3.18-1.7t1.06-5.3t-1.04-5.3t-3.16-1.7q-2.16,0-3.22,1.7z M97.88,27.96q-2.08,0.8-6.12,0.8q2,0.88,2.96,2.18t0.96,3.26q0,2.04-1.06,3.66t-3.04,2.54t-4.62,0.92q-1.4,0-2.48-0.28q-0.8,0.52-0.8,1.4q0,0.64,0.5,1.02t1.94,0.38l3.24,0q2.36,0,4.14,0.78t2.76,2.16t0.98,3.14q0,3.24-2.78,5.06t-8.02,1.82q-3.76,0-5.94-0.78t-3.06-2.26t-0.88-3.72l5.08,0q0,1.04,0.4,1.66t1.46,0.92t3.06,0.3q2.76,0,3.86-0.68t1.1-1.92q0-1.12-0.84-1.72t-2.48-0.6l-3.12,0q-3.16,0-4.72-1.18t-1.56-2.98q0-1.12,0.66-2.18t1.82-1.78q-1.96-1.08-2.86-2.54t-0.9-3.5q0-2.32,1.14-4.06t3.2-2.68t4.7-0.94q3.28,0.08,5.4-0.56t4.52-2z M84.14,30.98q-0.94,1.02-0.94,2.78q0,1.8,0.94,2.84t2.58,1.04q1.72,0,2.6-1t0.88-2.96q0-3.72-3.52-3.72q-1.6,0-2.54,1.02z M117.04,29.14q2.68,2.98,2.68,8.26q0,3.36-1.22,5.9t-3.52,3.94t-5.42,1.4q-4.76,0-7.46-2.98t-2.7-8.26q0-3.36,1.22-5.9t3.52-3.94t5.46-1.4q4.76,0,7.44,2.98z M106.38,32.1q-1.06,1.7-1.06,5.3t1.06,5.3t3.18,1.7t3.18-1.7t1.06-5.3t-1.04-5.3t-3.16-1.7q-2.16,0-3.22,1.7z M141.78,23.26q3.9,2.94,3.9,10.78q0,7.68-3.82,10.82t-9.78,3.14l-7.92,0l0-27.68l7.24,0q6.48,0,10.38,2.94z M130.04,24.64l0,19.04l2.4,0q3.4,0,5.26-2.1t1.86-7.54q0-3.76-0.94-5.84t-2.5-2.82t-3.8-0.74l-2.28,0z M167.84,39.12l-13.24,0q0.28,2.88,1.56,4.08t3.48,1.2q1.36,0,2.56-0.44t2.6-1.4l2.36,3.2q-3.56,2.88-8.04,2.88q-5,0-7.68-3t-2.68-8.12q0-3.24,1.14-5.82t3.32-4.06t5.18-1.48q4.52,0,7.04,2.84t2.52,7.92q0,0.4-0.12,2.2z M162.32,35.32q0-5.28-3.8-5.28q-1.76,0-2.74,1.3t-1.18,4.22l7.72,0l0-0.24z M186.8,28.72l-2.16,3.24q-2.68-1.68-5.28-1.68q-1.4,0-2.16,0.52t-0.76,1.4q0,0.64,0.34,1.08t1.28,0.84t2.82,0.96q3.36,0.92,5,2.46t1.64,4.22q0,2.12-1.22,3.68t-3.3,2.38t-4.64,0.82q-2.68,0-4.88-0.82t-3.76-2.26l2.8-3.12q2.68,2.08,5.68,2.08q1.6,0,2.54-0.62t0.94-1.7q0-0.84-0.36-1.32t-1.32-0.9t-3-0.98q-3.2-0.88-4.74-2.5t-1.54-4.02q0-1.8,1.04-3.24t2.94-2.26t4.42-0.82q4.48,0,7.68,2.56z M196.92,26.8l0,21.2l-5.68,0l0-21.2l5.68,0z M196.54,16.82q0.98,0.94,0.98,2.38t-0.98,2.38t-2.5,0.94t-2.48-0.94t-0.96-2.38t0.96-2.38t2.48-0.94t2.5,0.94z M221.48,27.96q-2.08,0.8-6.12,0.8q2,0.88,2.96,2.18t0.96,3.26q0,2.04-1.06,3.66t-3.04,2.54t-4.62,0.92q-1.4,0-2.48-0.28q-0.8,0.52-0.8,1.4q0,0.64,0.5,1.02t1.94,0.38l3.24,0q2.36,0,4.14,0.78t2.76,2.16t0.98,3.14q0,3.24-2.78,5.06t-8.02,1.82q-3.76,0-5.94-0.78t-3.06-2.26t-0.88-3.72l5.08,0q0,1.04,0.4,1.66t1.46,0.92t3.06,0.3q2.76,0,3.86-0.68t1.1-1.92q0-1.12-0.84-1.72t-2.48-0.6l-3.12,0q-3.16,0-4.72-1.18t-1.56-2.98q0-1.12,0.66-2.18t1.82-1.78q-1.96-1.08-2.86-2.54t-0.9-3.5q0-2.32,1.14-4.06t3.2-2.68t4.7-0.94q3.28,0.08,5.4-0.56t4.52-2z M207.74,30.98q-0.94,1.02-0.94,2.78q0,1.8,0.94,2.84t2.58,1.04q1.72,0,2.6-1t0.88-2.96q0-3.72-3.52-3.72q-1.6,0-2.54,1.02z M240.48,27.86q1.56,1.7,1.56,4.7l0,15.44l-5.68,0l0-14.48q0-1.72-0.58-2.42t-1.74-0.7q-1.2,0-2.18,0.74t-1.9,2.22l0,14.64l-5.68,0l0-21.2l4.92,0l0.44,2.68q1.32-1.64,2.9-2.48t3.58-0.84q2.8,0,4.36,1.7z M251.84,42.8q1,1,1,2.4t-1,2.42t-2.44,1.02q-1.4,0-2.4-1.02t-1-2.42t1-2.4t2.4-1q1.44,0,2.44,1z M271.8,48l-1.56-6.2l-8.68,0l-1.56,6.2l-6.12,0l8.52-27.68l7.16,0l8.48,27.68l-6.24,0z M262.68,37.44l6.44,0l-3.24-12.76z M286.48,20.32l0,27.68l-5.88,0l0-27.68l5.88,0z"/></g><g data-name="icon" fill="#a09ff2" data="id:5814910" transform="translate(105.24642501904654,47.00564714658596) scale(1.8954507249757364)">
  <g><path d="M82.26,63.28L69.93,50.95l3.53-3.45l3.45,3.45l3.04,3.62l0.25-0.08l-0.41-6.99v-6.82H52.18v6.82l-0.41,6.99l0.25,0.08   l3.04-3.62l3.45-3.45l3.53,3.45L49.71,63.28L37.38,50.95l3.54-3.45l3.45,3.45l3.12,3.62l0.16-0.08l-0.41-6.99v-6.82H20.2v6.82   l-0.41,6.99l0.16,0.08l3.12-3.62l3.45-3.45l3.54,3.45L17.73,63.28L5.4,50.95l3.54-3.45l3.45,3.45l3.04,3.62l0.25-0.08l-0.41-6.99   V35.99h69.46v11.51l-0.41,6.99l0.16,0.08l3.12-3.62l3.45-3.45l3.53,3.45L82.26,63.28z M45.85,69.44v5.92h9.54v-5.67h14.06v5.67   h8.96v-5.75h14.06v14.71H78.4v-5.67h-8.96v5.75H55.38v-5.75h-9.54v5.51H31.71v-5.51H21.52v6.74H5.49V68.62h16.03v6.74h10.19v-5.92   H45.85z M33.76,31.22l-1.97-12.91l2.38-0.9l8.71,7.89l5.18-10.69h2.3l5.51,10.69l9.37-7.89l2.22,0.9l-1.81,12.91H33.76z    M89.17,73.06h-7.48v7.97h7.48V73.06z"/></g>
  </g><g data-name="business_name" fill="#a09ff2" data="id:243" transform="translate(63.7220036591499,197.65384516152346) scale(2.0002779335341145)"><path d="M-0.04,38.24l4.04,0c-0.84,5.16-0.6,6.16,0.84,6.16c1.96,0,2.24-1.64,3-6c1.12-6.4-7.08-4.68-5.6-13.2c0.88-5,1.72-9.6,7.72-9.6c4.44,0,5.2,2.52,4.4,8.56l-4,0c0.6-4.36,0.32-5.36-0.96-5.36c-1.96,0-2.36,2.16-3.12,6.4c-1.08,6.2,7.28,4,5.64,13.2c-0.96,5.6-1.76,10-7.8,10c-4.64,0-5.24-2.76-4.16-10.16z M13.44,48l5.64-32l3.6,0l0.68,20l0.4,0l7.72-20l3.6,0l-5.64,32l-4,0l2.8-16l-5.64,16l-2.4,0l0.04-16l-2.8,16l-4,0z M33.44,48l2.96-16.8c1.96-11.16,2.76-15.56,8.76-15.56s5.2,4.4,3.24,15.56l-2.96,16.8l-4,0l1.64-9.2l-4,0l-1.64,9.2l-4,0z M39.64,35.6l4,0l0.76-4.4c1.84-10.4,2.16-12.36,0.16-12.36s-2.32,1.96-4.16,12.36z M49.44,48l5.64-32l6.48,0c4.12,0,5.08,2.52,4.24,7.36c-0.8,4.36-1.76,6.84-3.2,8.04l-0.04,0.24c0.96,0.36,0.96,2.24,0.56,6.92l-0.88,9.44l-4,0l1.16-9.44c0.56-4.76,0-5.76-1.2-5.76l-2.08,0l-2.68,15.2l-4,0z M56.68,29.6l2.48,0c1.4,0,2.04-1.4,2.92-6.24c0.52-3.16,0.12-4.16-1.08-4.16l-2.48,0z M67.84,48l5-28.4l-4,0l0.64-3.6l12,0l-0.64,3.6l-4,0l-5,28.4l-4,0z M81.44,48l1.24-32l4.2,0l-1.76,23.6l0.4,0l6.56-23.6l4.2,0l-10.04,32l-4.8,0z M96,31.16c1.96-11.16,3-15.56,9-15.56s5.44,4.4,3.48,15.56c-2.24,12.8-3.28,17.24-9.28,17.24s-5.44-4.44-3.2-17.24z M99.92,44.4c2.24,0,2.52-1.68,4.56-13.24c1.84-10.4,2.2-12.36-0.04-12.36s-2.6,1.96-4.44,12.36c-2.04,11.56-2.32,13.24-0.08,13.24z M111.52,48l5-28.4l-4,0l0.64-3.6l12,0l-0.64,3.6l-4,0l-5,28.4l-4,0z M121.92,48l5.64-32l9.2,0l-0.56,3.2l-5.2,0l-1.84,10.4l4.4,0l-0.56,3.2l-4.4,0l-1.96,11.2l5.2,0l-0.72,4l-9.2,0z"/></g><g data-name="slogan" fill="#a09ff2" data="id:243" transform="translate(63.00422333865419,295.6160368572001) scale(0.5673888187072189)"><path d="M-0.04,38.24l4.04,0c-0.84,5.16-0.6,6.16,0.84,6.16c1.96,0,2.24-1.64,3-6c1.12-6.4-7.08-4.68-5.6-13.2c0.88-5,1.72-9.6,7.72-9.6c4.44,0,5.2,2.52,4.4,8.56l-4,0c0.6-4.36,0.32-5.36-0.96-5.36c-1.96,0-2.36,2.16-3.12,6.4c-1.08,6.2,7.28,4,5.64,13.2c-0.96,5.6-1.76,10-7.8,10c-4.64,0-5.24-2.76-4.16-10.16z M13.44,48l5.64-32l9.2,0l-0.56,3.2l-5.2,0l-1.84,10.4l4.4,0l-0.56,3.2l-4.4,0l-1.96,11.2l5.2,0l-0.72,4l-9.2,0z M28,31.16c1.96-11.16,2.76-15.56,8.36-15.56c4.12,0,4.8,2.52,4,8.56l-3.72,0c0.6-4.36,0.36-5.36-0.84-5.36c-1.84,0-2.2,1.96-4.04,12.36c-2.04,11.56-2.32,13.24-0.48,13.24c1.32,0,1.88-1,2.88-6.16l3.76,0c-1.56,7.4-3.04,10.16-7.36,10.16c-5.6,0-4.8-4.44-2.56-17.24z M41.76,31.16l2.68-15.16l4,0l-2.68,15.16c-2.04,11.56-2.32,13.24-0.32,13.24s2.28-1.68,4.32-13.24l2.68-15.16l4,0l-2.68,15.16c-2.24,12.8-3.04,17.24-9.04,17.24s-5.2-4.44-2.96-17.24z M54.6,48l5.64-32l6.48,0c4.12,0,5.08,2.52,4.24,7.36c-0.8,4.36-1.76,6.84-3.2,8.04l-0.04,0.24c0.96,0.36,0.96,2.24,0.56,6.92l-0.88,9.44l-4,0l1.16-9.44c0.56-4.76,0-5.76-1.2-5.76l-2.08,0l-2.68,15.2l-4,0z M61.84,29.6l2.48,0c1.4,0,2.04-1.4,2.92-6.24c0.52-3.16,0.12-4.16-1.08-4.16l-2.48,0z M70.6,48l5.64-32l9.2,0l-0.56,3.2l-5.2,0l-1.84,10.4l4.4,0l-0.56,3.2l-4.4,0l-1.96,11.2l5.2,0l-0.72,4l-9.2,0z  M94.4,48l2.44-13.92l-1.4-18.08l4,0l0.24,12.32l0.4,0l4.56-12.32l4,0l-7.8,18.08l-2.44,13.92l-4,0z M107.96,31.16c1.96-11.16,3-15.56,9-15.56s5.44,4.4,3.48,15.56c-2.24,12.8-3.28,17.24-9.28,17.24s-5.44-4.44-3.2-17.24z M111.88,44.4c2.24,0,2.52-1.68,4.56-13.24c1.84-10.4,2.2-12.36-0.04-12.36s-2.6,1.96-4.44,12.36c-2.04,11.56-2.32,13.24-0.08,13.24z M123.84,31.16l2.68-15.16l4,0l-2.68,15.16c-2.04,11.56-2.32,13.24-0.32,13.24s2.28-1.68,4.32-13.24l2.68-15.16l4,0l-2.68,15.16c-2.24,12.8-3.04,17.24-9.04,17.24s-5.2-4.44-2.96-17.24z M136.68,48l5.64-32l6.48,0c4.12,0,5.08,2.52,4.24,7.36c-0.8,4.36-1.76,6.84-3.2,8.04l-0.04,0.24c0.96,0.36,0.96,2.24,0.56,6.92l-0.88,9.44l-4,0l1.16-9.44c0.56-4.76,0-5.76-1.2-5.76l-2.08,0l-2.68,15.2l-4,0z M143.92,29.6l2.48,0c1.4,0,2.04-1.4,2.92-6.24c0.52-3.16,0.12-4.16-1.08-4.16l-2.48,0z  M164.68,48l1.24-32l4.2,0l-1.76,23.6l0.4,0l6.56-23.6l4.2,0l-10.04,32l-4.8,0z M179.24,31.16c1.96-11.16,3-15.56,9-15.56s5.44,4.4,3.48,15.56c-2.24,12.8-3.28,17.24-9.28,17.24s-5.44-4.44-3.2-17.24z M183.16,44.4c2.24,0,2.52-1.68,4.56-13.24c1.84-10.4,2.2-12.36-0.04-12.36s-2.6,1.96-4.44,12.36c-2.04,11.56-2.32,13.24-0.08,13.24z M194.76,48l5-28.4l-4,0l0.64-3.6l12,0l-0.64,3.6l-4,0l-5,28.4l-4,0z M205.16,48l5.64-32l9.2,0l-0.56,3.2l-5.2,0l-1.84,10.4l4.4,0l-0.56,3.2l-4.4,0l-1.96,11.2l5.2,0l-0.72,4l-9.2,0z M216.6,51.44l2.52-6.8c0.16-0.48,0.48-0.72,0.96-0.72l2.04,0c0.56,0,0.76,0.36,0.52,0.88l-3.16,6.84c-0.2,0.48-0.6,0.68-1.04,0.68l-1.28,0c-0.56,0-0.8-0.36-0.56-0.88z  M235.84,38.24l4.04,0c-0.84,5.16-0.6,6.16,0.84,6.16c1.96,0,2.24-1.64,3-6c1.12-6.4-7.08-4.68-5.6-13.2c0.88-5,1.72-9.6,7.72-9.6c4.44,0,5.2,2.52,4.4,8.56l-4,0c0.6-4.36,0.32-5.36-0.96-5.36c-1.96,0-2.36,2.16-3.12,6.4c-1.08,6.2,7.28,4,5.64,13.2c-0.96,5.6-1.76,10-7.8,10c-4.64,0-5.24-2.76-4.16-10.16z M249.32,48l5.64-32l9.2,0l-0.56,3.2l-5.2,0l-1.84,10.4l4.4,0l-0.56,3.2l-4.4,0l-1.96,11.2l5.2,0l-0.72,4l-9.2,0z M263.88,31.16c1.96-11.16,2.76-15.56,8.36-15.56c4.12,0,4.8,2.52,4,8.56l-3.72,0c0.6-4.36,0.36-5.36-0.84-5.36c-1.84,0-2.2,1.96-4.04,12.36c-2.04,11.56-2.32,13.24-0.48,13.24c1.32,0,1.88-1,2.88-6.16l3.76,0c-1.56,7.4-3.04,10.16-7.36,10.16c-5.6,0-4.8-4.44-2.56-17.24z M277.64,31.16l2.68-15.16l4,0l-2.68,15.16c-2.04,11.56-2.32,13.24-0.32,13.24s2.28-1.68,4.32-13.24l2.68-15.16l4,0l-2.68,15.16c-2.24,12.8-3.04,17.24-9.04,17.24s-5.2-4.44-2.96-17.24z M290.48,48l5.64-32l6.48,0c4.12,0,5.08,2.52,4.24,7.36c-0.8,4.36-1.76,6.84-3.2,8.04l-0.04,0.24c0.96,0.36,0.96,2.24,0.56,6.92l-0.88,9.44l-4,0l1.16-9.44c0.56-4.76,0-5.76-1.2-5.76l-2.08,0l-2.68,15.2l-4,0z M297.72,29.6l2.48,0c1.4,0,2.04-1.4,2.92-6.24c0.52-3.16,0.12-4.16-1.08-4.16l-2.48,0z M306.48,48l5.64-32l9.2,0l-0.56,3.2l-5.2,0l-1.84,10.4l4.4,0l-0.56,3.2l-4.4,0l-1.96,11.2l5.2,0l-0.72,4l-9.2,0z  M330.28,48l2.44-13.92l-1.4-18.08l4,0l0.24,12.32l0.4,0l4.56-12.32l4,0l-7.8,18.08l-2.44,13.92l-4,0z M343.84,31.16c1.96-11.16,3-15.56,9-15.56s5.44,4.4,3.48,15.56c-2.24,12.8-3.28,17.24-9.28,17.24s-5.44-4.44-3.2-17.24z M347.76,44.4c2.24,0,2.52-1.68,4.56-13.24c1.84-10.4,2.2-12.36-0.04-12.36s-2.6,1.96-4.44,12.36c-2.04,11.56-2.32,13.24-0.08,13.24z M359.72,31.16l2.68-15.16l4,0l-2.68,15.16c-2.04,11.56-2.32,13.24-0.32,13.24s2.28-1.68,4.32-13.24l2.68-15.16l4,0l-2.68,15.16c-2.24,12.8-3.04,17.24-9.04,17.24s-5.2-4.44-2.96-17.24z M372.56,48l5.64-32l6.48,0c4.12,0,5.08,2.52,4.24,7.36c-0.8,4.36-1.76,6.84-3.2,8.04l-0.04,0.24c0.96,0.36,0.96,2.24,0.56,6.92l-0.88,9.44l-4,0l1.16-9.44c0.56-4.76,0-5.76-1.2-5.76l-2.08,0l-2.68,15.2l-4,0z M379.8,29.6l2.48,0c1.4,0,2.04-1.4,2.92-6.24c0.52-3.16,0.12-4.16-1.08-4.16l-2.48,0z  M397.36,48l5.64-32l8.4,0l-0.56,3.2l-4.4,0l-2.12,12l3.6,0l-0.56,3.2l-3.6,0l-2.4,13.6l-4,0z M411.32,31.16l2.68-15.16l4,0l-2.68,15.16c-2.04,11.56-2.32,13.24-0.32,13.24s2.28-1.68,4.32-13.24l2.68-15.16l4,0l-2.68,15.16c-2.24,12.8-3.04,17.24-9.04,17.24s-5.2-4.44-2.96-17.24z M426.56,48l5-28.4l-4,0l0.64-3.6l12,0l-0.64,3.6l-4,0l-5,28.4l-4,0z M439.72,31.16l2.68-15.16l4,0l-2.68,15.16c-2.04,11.56-2.32,13.24-0.32,13.24s2.28-1.68,4.32-13.24l2.68-15.16l4,0l-2.68,15.16c-2.24,12.8-3.04,17.24-9.04,17.24s-5.2-4.44-2.96-17.24z M452.56,48l5.64-32l6.48,0c4.12,0,5.08,2.52,4.24,7.36c-0.8,4.36-1.76,6.84-3.2,8.04l-0.04,0.24c0.96,0.36,0.96,2.24,0.56,6.92l-0.88,9.44l-4,0l1.16-9.44c0.56-4.76,0-5.76-1.2-5.76l-2.08,0l-2.68,15.2l-4,0z M459.8,29.6l2.48,0c1.4,0,2.04-1.4,2.92-6.24c0.52-3.16,0.12-4.16-1.08-4.16l-2.48,0z M468.56,48l5.64-32l9.2,0l-0.56,3.2l-5.2,0l-1.84,10.4l4.4,0l-0.56,3.2l-4.4,0l-1.96,11.2l5.2,0l-0.72,4l-9.2,0z"/></g></svg>